<?xml version="1.0" encoding="utf-8"?>
<!-- Generator: Adobe Illustrator 24.2.1, SVG Export Plug-In . SVG Version: 6.00 Build 0)  -->
<svg version="1.1" id="Layer_1" xmlns="http://www.w3.org/2000/svg" xmlns:xlink="http://www.w3.org/1999/xlink" x="0px" y="0px"
	 viewBox="0 0 24 24" style="enable-background:new 0 0 24 24;" xml:space="preserve">
<style type="text/css">
	.st0{fill-rule:evenodd;clip-rule:evenodd;fill:#FFFFFF;}
</style>
<path class="st0" d="M21.7,3.2c-0.3-0.3-0.8-0.3-1.1,0L9.4,14.3c-0.3,0.3-0.8,0.3-1.1,0l-4.9-5C3.3,9.2,3.1,9.1,2.9,9.1
	c-0.2,0-0.4,0.1-0.5,0.2l-2.2,1.9C0.1,11.4,0,11.6,0,11.8c0,0.2,0.1,0.4,0.2,0.5l4.9,5.2c0.3,0.3,0.8,0.8,1.1,1.1l2.1,2.1
	c0.3,0.3,0.8,0.3,1.1,0L23.8,6.4c0.3-0.3,0.3-0.8,0-1.1L21.7,3.2z"/>
</svg>
