<?xml version="1.0" encoding="utf-8"?>
<!-- Generator: Adobe Illustrator 24.2.1, SVG Export Plug-In . SVG Version: 6.00 Build 0)  -->
<svg version="1.1" id="Ebene_1" xmlns="http://www.w3.org/2000/svg" xmlns:xlink="http://www.w3.org/1999/xlink" x="0px" y="0px"
	 viewBox="0 0 1792 1792" style="enable-background:new 0 0 1792 1792;" xml:space="preserve">
<style type="text/css">
	.st0{fill:#FFFFFF;}
</style>
<path class="st0" d="M1664,256v448c0,17.3-6.3,32.3-19,45s-27.7,19-45,19h-448c-28,0-47.7-13.3-59-40c-11.3-26-6.7-49,14-69l138-138
	c-98.7-91.3-215-137-349-137c-69.3,0-135.5,13.5-198.5,40.5S580,488,534,534s-82.5,100.5-109.5,163.5S384,826.7,384,896
	s13.5,135.5,40.5,198.5S488,1212,534,1258s100.5,82.5,163.5,109.5S826.7,1408,896,1408c79.3,0,154.3-17.3,225-52s130.3-83.7,179-147
	c4.7-6.7,12.3-10.7,23-12c9.3,0,17.7,3,25,9l137,138c6,5.3,9.2,12.2,9.5,20.5s-2.2,15.8-7.5,22.5c-72.7,88-160.7,156.2-264,204.5
	s-212.3,72.5-327,72.5c-104,0-203.3-20.3-298-61s-176.3-95.3-245-164s-123.3-150.3-164-245s-61-194-61-298s20.3-203.3,61-298
	s95.3-176.3,164-245s150.3-123.3,245-164s194-61,298-61c98,0,192.8,18.5,284.5,55.5S1353.7,272.7,1425,340l130-129
	c19.3-20.7,42.7-25.3,70-14C1651,208.3,1664,228,1664,256z"/>
</svg>
