<?xml version="1.0" encoding="utf-8"?>
<!-- Generator: Adobe Illustrator 24.2.1, SVG Export Plug-In . SVG Version: 6.00 Build 0)  -->
<svg version="1.1" id="Ebene_1" xmlns="http://www.w3.org/2000/svg" xmlns:xlink="http://www.w3.org/1999/xlink" x="0px" y="0px"
	 viewBox="0 0 1792 1792" style="enable-background:new 0 0 1792 1792;" xml:space="preserve">
<style type="text/css">
	.st0{fill:#FFFFFF;}
</style>
<path class="st0" d="M1792,896c0,17.3-6.3,32.3-19,45l-256,256c-12.7,12.7-27.7,19-45,19s-32.3-6.3-45-19s-19-27.7-19-45v-128h-384
	v384h128c17.3,0,32.3,6.3,45,19s19,27.7,19,45s-6.3,32.3-19,45l-256,256c-12.7,12.7-27.7,19-45,19s-32.3-6.3-45-19l-256-256
	c-12.7-12.7-19-27.7-19-45s6.3-32.3,19-45s27.7-19,45-19h128v-384H384v128c0,17.3-6.3,32.3-19,45s-27.7,19-45,19s-32.3-6.3-45-19
	L19,941C6.3,928.3,0,913.3,0,896s6.3-32.3,19-45l256-256c12.7-12.7,27.7-19,45-19s32.3,6.3,45,19s19,27.7,19,45v128h384V384H640
	c-17.3,0-32.3-6.3-45-19s-19-27.7-19-45s6.3-32.3,19-45L851,19c12.7-12.7,27.7-19,45-19s32.3,6.3,45,19l256,256
	c12.7,12.7,19,27.7,19,45s-6.3,32.3-19,45s-27.7,19-45,19h-128v384h384V640c0-17.3,6.3-32.3,19-45s27.7-19,45-19s32.3,6.3,45,19
	l256,256C1785.7,863.7,1792,878.7,1792,896z"/>
</svg>
