<?xml version="1.0" encoding="utf-8"?>
<!-- Generator: Adobe Illustrator 24.2.1, SVG Export Plug-In . SVG Version: 6.00 Build 0)  -->
<svg version="1.1" id="Ebene_1" xmlns="http://www.w3.org/2000/svg" xmlns:xlink="http://www.w3.org/1999/xlink" x="0px" y="0px"
	 viewBox="0 0 1792 1792" style="enable-background:new 0 0 1792 1792;" xml:space="preserve">
<style type="text/css">
	.st0{fill:#FFFFFF;}
</style>
<path class="st0" d="M1664,896c0,104-20.3,203.3-61,298s-95.3,176.3-164,245s-150.3,123.3-245,164s-194,61-298,61
	c-114.7,0-223.7-24.2-327-72.5S377.7,1475,305,1387c-4.7-6.7-6.8-14.2-6.5-22.5s3.2-15.2,8.5-20.5l137-138c6.7-6,15-9,25-9
	c10.7,1.3,18.3,5.3,23,12c48.7,63.3,108.3,112.3,179,147s145.7,52,225,52c69.3,0,135.5-13.5,198.5-40.5S1212,1304,1258,1258
	s82.5-100.5,109.5-163.5S1408,965.3,1408,896s-13.5-135.5-40.5-198.5S1304,580,1258,534s-100.5-82.5-163.5-109.5S965.3,384,896,384
	c-65.3,0-128,11.8-188,35.5S594.7,477,548,521l137,138c20.7,20,25.3,43,14,69c-11.3,26.7-31,40-59,40H192c-17.3,0-32.3-6.3-45-19
	s-19-27.7-19-45V256c0-28,13.3-47.7,40-59c26-11.3,49-6.7,69,14l130,129c71.3-67.3,152.8-119.5,244.5-156.5S798,128,896,128
	c104,0,203.3,20.3,298,61s176.3,95.3,245,164s123.3,150.3,164,245S1664,792,1664,896z"/>
</svg>
